<svg width="36" height="35" viewBox="0 0 36 35" fill="none" xmlns="http://www.w3.org/2000/svg">
<path d="M36 19.8567V15.1433C33.5235 14.2873 31.959 14.0467 31.1715 12.199V12.1975C30.381 10.344 31.3215 9.08542 32.442 6.79146L29.0145 3.45917C26.673 4.54125 25.365 5.46438 23.454 4.69438H23.4525C21.549 3.92729 21.3 2.39604 20.424 0H15.576C14.703 2.38438 14.4525 3.92583 12.5475 4.69438H12.546C10.6395 5.46438 9.348 4.55146 6.9855 3.45917L3.558 6.79146C4.6755 9.07813 5.6205 10.341 4.8285 12.1975C4.038 14.051 2.4525 14.2946 0 15.1433V19.8567C2.448 20.7025 4.038 20.949 4.8285 22.801C5.6235 24.6706 4.6575 25.9598 3.558 28.2071L6.9855 31.5408C9.3285 30.4573 10.6365 29.5356 12.546 30.3056H12.5475C14.4525 31.0727 14.7015 32.6083 15.576 35H20.424C21.297 32.6142 21.549 31.0771 23.4645 30.3013H23.466C25.359 29.5371 26.646 30.4485 29.013 31.5423L32.4405 28.2085C31.3245 25.9292 30.378 24.6604 31.1685 22.804C31.959 20.9504 33.5505 20.704 36 19.8567V19.8567ZM18 23.3333C14.6865 23.3333 12 20.7215 12 17.5C12 14.2785 14.6865 11.6667 18 11.6667C21.3135 11.6667 24 14.2785 24 17.5C24 20.7215 21.3135 23.3333 18 23.3333Z" fill="#FABF26"/>
</svg>
