<svg width="29" height="33" viewBox="0 0 29 33" fill="none" xmlns="http://www.w3.org/2000/svg">
<g clip-path="url(#clip0_6_20)">
<path d="M28.5271 10.7735H0.75592V20.2003H28.5271V10.7735ZM3.07019 17.5069L4.06879 13.4668H5.54413L4.54553 17.5069H3.07019ZM5.46082 17.5069L6.45943 13.4668H7.93477L6.93616 17.5069H5.46082ZM7.85261 17.5069L8.85122 13.4668H10.3266L9.3268 17.5069H7.85261ZM10.2432 17.5069L11.2419 13.4668H12.716L11.7174 17.5069H10.2432ZM14.1092 17.5069H12.635L13.6336 13.4668H15.109L14.1092 17.5069ZM25.0557 16.8336C24.417 16.8336 23.8986 16.2302 23.8986 15.4869C23.8986 14.7435 24.417 14.1402 25.0557 14.1402C25.6956 14.1402 26.2128 14.7435 26.2128 15.4869C26.2128 16.2302 25.6956 16.8336 25.0557 16.8336ZM28.5271 22.8936H0.75592V32.3204H28.5271V22.8936ZM3.07019 29.6271L4.06879 25.587H5.54413L4.54553 29.6271H3.07019ZM5.46082 29.6271L6.45943 25.587H7.93477L6.93616 29.6271H5.46082ZM7.85261 29.6271L8.85122 25.587H10.3266L9.3268 29.6271H7.85261ZM10.2432 29.6271L11.2419 25.587H12.716L11.7174 29.6271H10.2432ZM14.1092 29.6271H12.635L13.6336 25.587H15.109L14.1092 29.6271ZM25.0557 28.9537C24.417 28.9537 23.8986 28.3504 23.8986 27.607C23.8986 26.8637 24.417 26.2604 25.0557 26.2604C25.6956 26.2604 26.2128 26.8637 26.2128 27.607C26.2128 28.3504 25.6956 28.9537 25.0557 28.9537ZM26.2128 8.08011H3.07019L7.69871 0H21.5843L26.2128 8.08011Z" fill="#FABF26"/>
</g>
<defs>
<clipPath id="clip0_6_20">
<rect width="27.7712" height="32.3204" fill="white" transform="translate(0.75592)"/>
</clipPath>
</defs>
</svg>
