<svg width="33" height="38" viewBox="0 0 33 38" fill="none" xmlns="http://www.w3.org/2000/svg">
<g clip-path="url(#clip0_2_119)">
<path d="M29.5061 6.17896H2.96016C1.49482 6.17896 0.305565 7.56304 0.305565 9.26842V27.8052C0.305565 29.5106 1.49482 30.8947 2.96016 30.8947H29.5061C30.9715 30.8947 32.1607 29.5106 32.1607 27.8052V9.26842C32.1607 7.56304 30.9715 6.17896 29.5061 6.17896ZM29.5061 27.0329C29.5061 27.4592 29.2088 27.8052 28.8425 27.8052H3.62381C3.25748 27.8052 2.96016 27.4592 2.96016 27.0329V16.9921H29.5061V27.0329ZM29.5061 12.3579H2.96016V10.0408C2.96016 9.61444 3.25748 9.26842 3.62381 9.26842H28.8425C29.2088 9.26842 29.5061 9.61444 29.5061 10.0408V12.3579ZM17.5604 21.6263H5.61476V20.0816H17.5604V21.6263ZM13.5786 24.7158H5.61476V23.171H13.5786V24.7158ZM26.8515 21.6263H22.8696V20.0816H26.8515V21.6263Z" fill="#FABF26"/>
</g>
<defs>
<clipPath id="clip0_2_119">
<rect width="31.8552" height="37.0736" fill="white" transform="translate(0.305565)"/>
</clipPath>
</defs>
</svg>
