<svg width="37" height="35" viewBox="0 0 37 35" fill="none" xmlns="http://www.w3.org/2000/svg">
<g clip-path="url(#clip0_2_110)">
<path d="M24.5279 19.4542L28.5917 13.5829L27.8918 12.9908L22.2293 17.5102C21.1887 17.309 20.0679 17.6094 19.3094 18.4115C18.1747 19.6117 18.2842 21.4565 19.5545 22.5298C20.8248 23.6031 22.7735 23.4996 23.9082 22.2979C24.6667 21.4958 24.8563 20.4094 24.5279 19.4542ZM18.5 3.92875V0H24.6667V3.92875C22.4482 3.57437 20.6707 3.58167 18.5 3.92875ZM32.1453 6.93875L34.3144 4.88687L36.4943 6.94896L34.4578 8.87542C33.7455 8.16958 32.9716 7.52354 32.1453 6.93875ZM3.08333 13.125H15.4167V16.0417H3.08333V13.125ZM0 18.9583H12.3333V21.875H0V18.9583ZM4.625 24.7917H15.4167V27.7083H4.625V24.7917ZM37 20.4167C37 28.471 30.098 35 21.5833 35C17.2821 35 13.4125 33.3156 10.6205 30.625H15.6772C17.4316 31.5452 19.4373 32.0833 21.5833 32.0833C28.3836 32.0833 33.9167 26.8494 33.9167 20.4167C33.9167 13.984 28.3836 8.75 21.5833 8.75C19.4373 8.75 17.4316 9.28812 15.6772 10.2083H10.6205C13.4125 7.51771 17.2821 5.83333 21.5833 5.83333C30.098 5.83333 37 12.3623 37 20.4167Z" fill="#FABF26"/>
</g>
<defs>
<clipPath id="clip0_2_110">
<rect width="37" height="35" fill="white"/>
</clipPath>
</defs>
</svg>
