<svg width="39" height="23" viewBox="0 0 39 23" fill="none" xmlns="http://www.w3.org/2000/svg">
<path d="M28.6637 22.7958H9.88509L9.88196 21.6607C9.88196 19.3669 10.0385 18.0423 12.368 17.4155C15.0044 16.7067 17.6032 16.0745 16.3523 13.3907C12.6483 5.44137 15.2971 0.931946 19.2736 0.931946C23.1733 0.931946 25.8895 5.27375 22.1949 13.3925C20.9816 16.0599 23.488 16.694 26.1792 17.4173C28.5118 18.0441 28.6668 19.3705 28.6668 21.668L28.6637 22.7958ZM36.1954 18.7619C34.1759 18.219 32.2973 17.7435 33.2068 15.7429C35.9762 9.65382 33.9411 6.39792 31.0151 6.39792C29.0347 6.39792 27.4958 7.88649 27.4958 10.6322C27.4958 17.7435 31.0464 13.8571 31.0119 22.7958H38.0584L38.0615 21.9523C38.0615 20.2287 37.9457 19.232 36.1954 18.7619ZM0.491901 22.7958H7.53836C7.50548 13.8571 11.0545 17.7453 11.0545 10.6322C11.0545 7.88649 9.51563 6.39792 7.53523 6.39792C4.60925 6.39792 2.57406 9.65382 5.34505 15.7429C6.25462 17.7453 4.37599 18.219 2.35645 18.7619C0.604619 19.232 0.48877 20.2287 0.48877 21.9523L0.491901 22.7958Z" fill="#FABF26"/>
</svg>
