<svg width="26" height="39" viewBox="0 0 26 39" fill="none" xmlns="http://www.w3.org/2000/svg">
<path d="M20.9928 15.8434V9.50604C20.9928 4.25712 17.3349 0 12.8248 0C8.31468 0 4.65678 4.25712 4.65678 9.50604V15.8434H0.572784V38.0242H25.0768V15.8434H20.9928ZM14.1861 28.0793V31.6868H11.4634V28.0793C10.6534 27.5295 10.1021 26.5203 10.1021 25.3494C10.1021 23.6003 11.3219 22.1808 12.8248 22.1808C14.3277 22.1808 15.5474 23.6003 15.5474 25.3494C15.5474 26.5187 14.9975 27.5295 14.1861 28.0793ZM7.37945 15.8434V9.50604C7.37945 6.01099 9.82168 3.16868 12.8248 3.16868C15.8265 3.16868 18.2701 6.01099 18.2701 9.50604V15.8434H7.37945Z" fill="#FABF26"/>
</svg>
